<?xml version="1.0" standalone="no"?><!DOCTYPE svg PUBLIC "-//W3C//DTD SVG 1.1//EN" "http://www.w3.org/Graphics/SVG/1.1/DTD/svg11.dtd"><svg t="1668481825253" class="icon" viewBox="0 0 1024 1024" version="1.1" xmlns="http://www.w3.org/2000/svg" p-id="3014" xmlns:xlink="http://www.w3.org/1999/xlink" width="200" height="200"><path d="M104.106667 235.52c-5.12 0-10.24-1.706667-15.36-5.12-11.946667-8.533333-13.653333-25.6-5.12-35.84l117.76-151.893333c8.533333-10.24 20.48-17.066667 34.133333-17.066667h554.666667c13.653333 0 25.6 6.826667 34.133333 17.066667l117.76 151.893333c8.533333 11.946667 6.826667 27.306667-5.12 35.84s-27.306667 6.826667-35.84-5.12L785.066667 76.8H238.933333l-116.053333 148.48c-5.12 6.826667-11.946667 10.24-18.773333 10.24z" fill="#333333" p-id="3015"></path><path d="M880.64 998.4H143.36c-51.2 0-93.866667-42.666667-93.866667-93.866667V264.533333c0-51.2 42.666667-93.866667 93.866667-93.866666h737.28c51.2 0 93.866667 42.666667 93.866667 93.866666V904.533333c0 51.2-42.666667 93.866667-93.866667 93.866667zM143.36 221.866667c-23.893333 0-42.666667 18.773333-42.666667 42.666666V904.533333c0 23.893333 18.773333 42.666667 42.666667 42.666667h737.28c23.893333 0 42.666667-18.773333 42.666667-42.666667V264.533333c0-23.893333-18.773333-42.666667-42.666667-42.666666H143.36z" fill="#333333" p-id="3016"></path><path d="M512 803.84c-6.826667 0-13.653333-3.413333-18.773333-6.826667L300.373333 602.453333c-10.24-10.24-10.24-25.6 0-35.84s25.6-10.24 35.84 0L512 742.4l175.786667-175.786667c10.24-10.24 25.6-10.24 35.84 0s10.24 25.6 0 35.84L530.773333 797.013333c-5.12 5.12-11.946667 6.826667-18.773333 6.826667z" fill="#333333" p-id="3017"></path><path d="M512 803.84c-13.653333 0-25.6-11.946667-25.6-25.6V390.826667c0-13.653333 11.946667-25.6 25.6-25.6s25.6 11.946667 25.6 25.6v387.413333c0 15.36-11.946667 25.6-25.6 25.6z" fill="#333333" p-id="3018"></path></svg>