<svg xmlns:xlink="http://www.w3.org/1999/xlink" xmlns="http://www.w3.org/2000/svg" version="1.1" viewBox="0 0 1024 1024" height="1024px" width="1024px">
    <title>头像-女四</title>
    <defs>
        <circle r="512" cy="512" cx="512" id="path-1"></circle>
        <rect height="120" width="111" y="0" x="0" id="path-3"></rect>
        <path id="path-5" d="M2.56544501,335.202643 C-11.8745444,199.704828 34.6436897,87.970614 142.120147,0 C229.166958,108.312987 317.141984,118.478525 406.045225,30.4966138 C489.302513,16.1666246 542.647085,61.3556241 566.078941,166.063612 C589.510798,270.7716 599.335078,350.076602 595.551783,403.978618 C214.667547,493.625783 17.0054344,470.700458 2.56544501,335.202643 Z"></path>
    </defs>
    <g fill-rule="evenodd" fill="none" stroke-width="1" stroke="none" id="头像-女四">
        <rect height="1024" width="1024" y="0" x="0" fill="#FFFFFF"></rect>
        <g id="路径-7">
            <mask fill="white" id="mask-2">
                <use xlink:href="#path-1"></use>
            </mask>
            <use xlink:href="#path-1" fill="#FFDBCF" id="蒙版"></use>
            <rect height="246" width="345" y="492" x="340" mask="url(#mask-2)" fill="#110D2E" id="矩形"></rect>
            <g mask="url(#mask-2)" id="椭圆形">
                <g transform="translate(457.000000, 618.000000)">
                    <mask fill="white" id="mask-4">
                        <use xlink:href="#path-3"></use>
                    </mask>
                    <use xlink:href="#path-3" fill-rule="evenodd" fill="#FFCACA" stroke="none" id="蒙版"></use>
                    <ellipse ry="23.5" rx="47" cy="10.5" cx="57" mask="url(#mask-4)" opacity="0.5191476" style="mix-blend-mode: multiply;" fill-rule="evenodd" fill="#FFB0B0" stroke="none" id="椭圆形"></ellipse>
                </g>
            </g>
            <g mask="url(#mask-2)" id="椭圆形">
                <g transform="translate(227.879853, 636.000000)">
                    <mask fill="white" id="mask-6">
                        <use xlink:href="#path-5"></use>
                    </mask>
                    <use xlink:href="#path-5" fill-rule="evenodd" fill="#FF7D5B" stroke="none" id="蒙版"></use>
                    <ellipse ry="52.8488372" rx="101" cy="61" cx="284.120147" mask="url(#mask-6)" fill-rule="evenodd" fill="#FFFFFF" stroke="none" id="椭圆形"></ellipse>
                </g>
            </g>
            <path mask="url(#mask-2)" fill="#110D2E" id="椭圆形备份-6" d="M623.21348,753 C662.149554,753 685.5,687.436075 685.5,648.5 C685.5,609.563925 653.936075,578 615,578 C576.063925,578 544.5,609.563925 544.5,648.5 C544.5,687.436075 584.277405,753 623.21348,753 Z"></path>
            <ellipse ry="199" rx="142" cy="437" cx="512" mask="url(#mask-2)" fill="#FFCACA" id="椭圆形"></ellipse>
            <path mask="url(#mask-2)" fill="#110D2E" id="路径-10" d="M498.53724,187.77202 C443.088932,178.763667 405.56505,188.500586 385.965594,216.982779 C356.566409,259.706067 364.942489,280.562788 333.102428,289.531394 C301.262368,298.5 310.157072,368.000874 310.157072,368.000874 C310.157072,368.000874 317.413494,423 278.078712,436 C238.74393,449 230.677971,460.5054 248.407355,501.999982 C266.136739,543.494563 292.608627,569.704858 241.879853,587.352429 C191.151078,605 202.851952,656 212.844313,697 C222.836675,738 249.345315,764.034813 192.818373,805.795805 C136.291431,847.556798 138.893514,844.377073 149.262033,906.151001 C156.174378,947.333619 231.510459,995.490138 375.270274,1050.62056 L333.102428,483.149907"></path>
            <path mask="url(#mask-2)" fill="#110D2E" id="路径-11" d="M498.53724,187.77202 C553.06552,181.66731 587.501024,191.273367 601.843752,216.590192 C623.357844,254.56543 636.336187,277.874325 659.581064,286.110862 C682.825941,294.347399 693.630941,319.950992 693.630941,344.10162 C693.630941,368.252249 677.394693,380.13337 701.246347,410.066685 C725.098001,440 737.341531,465.115255 737.341531,488.557627 C737.341531,512 737.102776,540.702871 775,574.702871 C812.897224,608.702871 839.362368,652 812,678.5 C784.637632,705 792.184133,757.828142 833.134746,795 C874.085359,832.171858 828.182133,924.33689 809.626057,945.309774 C791.069981,966.282658 783.510162,1016.63787 809.626057,1036.5 C827.036654,1049.74142 790.910084,1066.74941 701.246347,1087.52395 L693.630941,574.702871"></path>
            <path mask="url(#mask-2)" fill="#110D2E" id="路径-13" d="M499.023664,298.379877 C459.899542,308.419567 437.348545,327.006465 431.370673,354.14057 C421.315672,399.78114 467.887755,421.5 400.290476,492 C332.693197,562.5 422.531614,589.096837 422.531614,618 C422.531614,646.903163 427,633.206213 427,701 C427,768.793787 431.370673,738.229848 431.370673,779.029591 C431.370673,819.829335 378.255285,829.538354 394.627643,884.286646 C411,939.034937 444.365483,948.478454 389.040549,1018 C352.157259,1064.3477 310.623394,1043.18267 264.438953,954.504918 L313.9569,573.003147 L347.36297,359.569288 L417.76738,238 L457,209.12149 L498.53724,187.77202 C503.045835,193.781964 513.167488,221.386341 528.902201,270.585152 L522.656497,280.860616 C517.367876,289.561481 508.886191,295.849041 499.023664,298.379877 Z"></path>
            <circle r="57" cy="667" cx="427" mask="url(#mask-2)" fill="#110D2E" id="椭圆形"></circle>
            <circle r="57" cy="753" cx="654" mask="url(#mask-2)" fill="#110D2E" id="椭圆形备份-7"></circle>
            <circle r="57" cy="837" cx="654" mask="url(#mask-2)" fill="#110D2E" id="椭圆形备份-8"></circle>
            <circle r="80" cy="944.5" cx="653.5" mask="url(#mask-2)" fill="#110D2E" id="椭圆形备份-9"></circle>
            <circle r="57" cy="738" cx="399" mask="url(#mask-2)" fill="#110D2E" id="椭圆形备份-2"></circle>
            <circle r="57" cy="821" cx="419" mask="url(#mask-2)" fill="#110D2E" id="椭圆形备份-3"></circle>
            <circle r="68" cy="878" cx="386" mask="url(#mask-2)" fill="#110D2E" id="椭圆形备份-4"></circle>
            <circle r="70.5" cy="980" cx="396.5" mask="url(#mask-2)" fill="#110D2E" id="椭圆形备份-5"></circle>
            <path mask="url(#mask-2)" fill="#110D2E" id="路径-12" d="M577.587221,300.352056 C612.847938,310.914572 626.320175,337.369627 618.003932,379.71722 C601.16055,465.486326 626.930235,482.858129 636.219521,497.835234 C666.531787,546.707668 606.972597,544.721391 610.076791,628.5 C611.624983,670.283914 618.206751,717.586932 639,724 C661.407612,730.910971 696.171663,697.446024 639,764 C613.069642,794.185731 629.348899,822.561714 659.729726,864.760773 C673.838063,884.357295 640.521896,966.408917 654,994.621785 C669.545581,1027.16237 643.838579,1062.5811 629.482547,1064.88989 C611.61402,1067.76358 655.262456,1075.30827 760.427854,1087.52395 L720.373484,847.29497 L720.373484,527.989414 L659.729726,330.542616 L603.843383,230.288482 L533.91587,200.351514 L498.53724,200.351514 L512.153786,238.317344 C522.876046,268.213291 547.162377,291.238149 577.587221,300.352056 Z"></path>
        </g>
        <line opacity="0.063684" stroke-width="5" stroke="#FFFFFF" id="路径-9" y2="298.5" x2="533.5" y1="200.351514" x1="533.91587"></line>
        <path stroke-linejoin="round" stroke-linecap="round" stroke-width="7" stroke="#110D2E" id="路径-4" d="M557.531614,410.066685 C571.923104,402.561697 583.549215,398.809203 592.409948,398.809203 C601.27068,398.809203 612.896792,402.561697 627.288282,410.066685"></path>
        <path stroke-linejoin="round" stroke-linecap="round" stroke-width="7" stroke="#110D2E" id="路径-4备份" d="M422.531614,407.066685 C436.649805,403.314191 448.139268,401.437944 457,401.437944 C465.860732,401.437944 477.623493,403.314191 492.288282,407.066685"></path>
        <circle r="9" cy="445" cx="466" fill="#110D2E" id="椭圆形"></circle>
        <circle r="9" cy="440" cx="578" fill="#110D2E" id="椭圆形备份"></circle>
        <path stroke-linejoin="round" stroke-linecap="round" stroke-width="7" stroke="#FF9494" id="路径-5" d="M522.103395,472 L522.103395,498 C522.103395,505.731986 528.371409,512 536.103395,512 L542.936345,512 L542.936345,512"></path>
        <line stroke-linejoin="round" stroke-linecap="round" stroke-width="7" stroke="#110D2E" id="路径-8" y2="562.5" x2="540.80279" y1="562.5" x1="512"></line>
        <ellipse ry="25.5" rx="36.5" cy="537.5" cx="430.5" opacity="0.216334752" style="mix-blend-mode: multiply;" fill="#FFAAAA" id="椭圆形"></ellipse>
        <ellipse ry="25.5" rx="36.5" cy="537.5" cx="617.5" opacity="0.216334752" style="mix-blend-mode: multiply;" fill="#FFAAAA" id="椭圆形备份-2"></ellipse>
    </g>
</svg>