<svg xmlns:xlink="http://www.w3.org/1999/xlink" xmlns="http://www.w3.org/2000/svg" version="1.1" viewBox="0 0 1024 1024" height="1024px" width="1024px">
    <title>头像-男三</title>
    <defs>
        <circle r="512" cy="512" cx="512" id="path-1"></circle>
        <rect height="120" width="111" y="0" x="0" id="path-3"></rect>
        <path id="path-5" d="M328.5,18.9304986 C352.455563,18.9304986 373.312866,11.3056017 384.127085,0.0477139519 C429.582944,8.09325587 492.17011,24.0824892 571.883906,48.0136835 C611.727505,59.9752899 640.004097,95.3544963 642.889488,136.8547 L657.048723,340.505172 L0,346.502763 L16.3185755,135.954733 C19.5004696,94.9008104 47.5220192,59.9943612 86.9166864,48.0106542 C165.731555,24.0354727 227.703682,8.0319213 272.833065,-3.99680289e-14 C283.630274,11.2847989 304.51178,18.9304986 328.5,18.9304986 Z"></path>
        <ellipse ry="199" rx="142" cy="199" cx="142" id="path-7"></ellipse>
    </defs>
    <g fill-rule="evenodd" fill="none" stroke-width="1" stroke="none" id="头像-男三">
        <rect height="1024" width="1024" y="0" x="0" fill="#FFFFFF"></rect>
        <g id="路径-18">
            <mask fill="white" id="mask-2">
                <use xlink:href="#path-1"></use>
            </mask>
            <use xlink:href="#path-1" fill="#BDDFFF" id="蒙版"></use>
            <path transform="translate(609.586775, 290.377919) scale(-1, 1) rotate(33.000000) translate(-609.586775, -290.377919)" mask="url(#mask-2)" fill="#110D2E" id="椭圆形备份-4" d="M627.740215,446.088273 C678.46567,446.088273 719.586775,383.183975 719.586775,305.588076 C719.586775,227.992178 705.59498,137.978467 641.242546,134.759992 C576.890112,131.541517 495.194199,212.823602 499.770845,308.787684 C504.347492,404.751766 577.014761,446.088273 627.740215,446.088273 Z"></path>
            <path transform="translate(421.134998, 331.803248) rotate(33.000000) translate(-421.134998, -331.803248)" mask="url(#mask-2)" fill="#110D2E" id="椭圆形" d="M440.113595,472.303248 C493.144751,472.303248 536.134998,409.39895 536.134998,331.803051 C536.134998,254.207153 493.144751,191.303248 440.113595,191.303248 C387.082438,191.303248 301.542759,239.038577 306.327435,335.002659 C311.112111,430.966741 387.082438,472.303248 440.113595,472.303248 Z"></path>
            <g mask="url(#mask-2)" id="椭圆形">
                <g transform="translate(457.000000, 618.000000)">
                    <mask fill="white" id="mask-4">
                        <use xlink:href="#path-3"></use>
                    </mask>
                    <use xlink:href="#path-3" fill-rule="evenodd" fill="#FFCACA" stroke="none" id="蒙版"></use>
                    <ellipse ry="46.5" rx="80.5" cy="-12.5" cx="55.5" mask="url(#mask-4)" opacity="0.5191476" style="mix-blend-mode: multiply;" fill-rule="evenodd" fill="#FFB0B0" stroke="none" id="椭圆形"></ellipse>
                </g>
            </g>
            <g mask="url(#mask-2)" id="路径-23备份">
                <g transform="translate(184.000000, 708.069501)">
                    <mask fill="white" id="mask-6">
                        <use xlink:href="#path-5"></use>
                    </mask>
                    <use xlink:href="#path-5" fill-rule="evenodd" fill="#FFFFFF" stroke="none" id="蒙版"></use>
                    <path mask="url(#mask-6)" fill-rule="evenodd" fill="#4E86BA" stroke="none" id="矩形" d="M131,-30.0695014 L534,-30.0695014 C516.448434,5.95805608 510.63025,70.3075491 516.545448,162.978978 C522.460645,255.650406 541.612163,347.96758 574,439.930499 L91,439.930499 C125.367204,319.288753 144.593122,226.97158 148.677757,162.978978 C152.762391,98.9863754 146.869805,34.6368824 131,-30.0695014 Z"></path>
                    <path transform="translate(373.899006, 37.376777) scale(-1, 1) translate(-373.899006, -37.376777)" mask="url(#mask-6)" fill-rule="evenodd" fill="#FFFFFF" stroke="none" id="路径-23备份" d="M363.798011,1.13686838e-13 L419.798011,18.9304986 L365.944703,74.753553 L328,5.04646214 C340.979986,3.7635801 349.059357,2.81281109 352.238113,2.19415511 C355.416869,1.57549912 359.270169,0.844114086 363.798011,1.13686838e-13 Z"></path>
                    <path mask="url(#mask-6)" fill-rule="evenodd" fill="#FFFFFF" stroke="none" id="路径-23备份" d="M271.798011,1.13686838e-13 L327.798011,18.9304986 L273.944703,74.753553 L236,5.04646214 C248.979986,3.7635801 257.059357,2.81281109 260.238113,2.19415511 C263.416869,1.57549912 267.270169,0.844114086 271.798011,1.13686838e-13 Z"></path>
                </g>
            </g>
        </g>
        <g transform="translate(370.000000, 238.000000)" id="椭圆形备份-2">
            <mask fill="white" id="mask-8">
                <use xlink:href="#path-7"></use>
            </mask>
            <use xlink:href="#path-7" fill="#FFCACA" id="蒙版"></use>
            <ellipse ry="25.5" rx="36.5" cy="304.5" cx="247.5" mask="url(#mask-8)" opacity="0.216334752" style="mix-blend-mode: multiply;" fill="#FFAAAA"></ellipse>
        </g>
        <circle r="83.5" cy="299.5" cx="550.5" fill="#110D2E" id="椭圆形"></circle>
        <circle r="83.5" cy="293.5" cx="449.5" fill="#110D2E" id="椭圆形备份-5"></circle>
        <circle r="75" cy="340" cx="384" fill="#110D2E" id="椭圆形备份-6"></circle>
        <path stroke-linejoin="round" stroke-linecap="round" stroke-width="7" stroke="#110D2E" id="路径-4" d="M557.531614,415.066685 C571.923104,407.561697 583.549215,403.809203 592.409948,403.809203 C601.27068,403.809203 612.896792,407.561697 627.288282,415.066685"></path>
        <path stroke-linejoin="round" stroke-linecap="round" stroke-width="7" stroke="#110D2E" id="路径-4备份" d="M422.531614,412.066685 C436.649805,408.314191 448.139268,406.437944 457,406.437944 C465.860732,406.437944 477.623493,408.314191 492.288282,412.066685"></path>
        <circle r="9" cy="450" cx="466" fill="#110D2E" id="椭圆形"></circle>
        <circle r="9" cy="445" cx="578" fill="#110D2E" id="椭圆形备份"></circle>
        <path stroke-linejoin="round" stroke-linecap="round" stroke-width="7" stroke="#FF9494" id="路径-5" d="M522.103395,477 L522.103395,503 C522.103395,510.731986 528.371409,517 536.103395,517 L542.936345,517 L542.936345,517"></path>
        <line stroke-linejoin="round" stroke-linecap="round" stroke-width="7" stroke="#110D2E" id="路径-8" y2="567.5" x2="540.80279" y1="567.5" x1="512"></line>
        <ellipse ry="25.5" rx="36.5" cy="542.5" cx="430.5" opacity="0.216334752" style="mix-blend-mode: multiply;" fill="#FFAAAA" id="椭圆形"></ellipse>
        <ellipse ry="43" rx="36.5" cy="458" cx="370.5" fill="#FFCACA" id="椭圆形"></ellipse>
        <g stroke-width="4" stroke-linejoin="round" stroke-linecap="round" stroke="#FF9494" transform="translate(345.441289, 445.000000)" id="编组-8">
            <path id="路径-2" d="M30.1994832,5.68434189e-14 C13.5174214,0.53093587 3.45092698,5.41711726 0,14.6585442"></path>
            <path id="路径-19" d="M12.258354,4 C22.6789763,11.4031175 26.3261442,20.5121611 23.1998577,31.3271308"></path>
        </g>
        <ellipse ry="43" rx="36.5" cy="458" cx="655.5" fill="#FFCACA" id="椭圆形备份-3"></ellipse>
        <g stroke-width="4" stroke-linejoin="round" stroke-linecap="round" stroke="#FF9494" transform="translate(664.541031, 460.663565) scale(-1, 1) translate(-664.541031, -460.663565) translate(649.441289, 445.000000)" id="编组-7">
            <path id="路径-2备份" d="M30.1994832,5.68434189e-14 C13.5174214,0.53093587 3.45092698,5.41711726 0,14.6585442"></path>
            <path id="路径-19备份" d="M12.258354,4 C22.6789763,11.4031175 26.3261442,20.5121611 23.1998577,31.3271308"></path>
        </g>
        <g fill-rule="nonzero" transform="translate(583.000000, 825.000000)" opacity="0.586835589" id="菊花">
            <rect height="88" width="88" y="0" x="0" opacity="0" fill="#000000" id="矩形"></rect>
            <path opacity="0.447844732" fill="#FFFFFF" id="形状" d="M76.1492188,36.8757812 C73.3304688,35.7242187 69.7554688,35.0195312 65.93125,34.8390625 C68.5007813,32.0117188 70.5203125,28.9953125 71.6976563,26.19375 C74.009375,20.7023438 72.3507813,17.8835938 71.15625,16.6804688 C69.9617188,15.4859375 67.134375,13.8273438 61.6429688,16.1390625 C58.8328125,17.325 55.8078125,19.353125 52.9804688,21.93125 C52.8,18.115625 52.0953125,14.5578125 50.9523438,11.7390625 C48.709375,6.221875 45.5382813,5.396875 43.8453125,5.396875 C42.1523438,5.396875 38.98125,6.221875 36.7382813,11.7390625 C35.5867188,14.5578125 34.8820313,18.1328125 34.7015625,21.9570313 C31.8742188,19.3875 28.8578125,17.3679688 26.05625,16.190625 C20.5648438,13.8789063 17.7460938,15.5375 16.5429688,16.7320313 C15.3484375,17.9265625 13.6898438,20.7539063 16.0015625,26.2453125 C17.1875,29.0554688 19.215625,32.0804688 21.79375,34.9078125 C17.978125,35.0882813 14.4203125,35.7929688 11.6015625,36.9359375 C6.084375,39.1789063 5.259375,42.35 5.259375,44.0429688 C5.259375,45.7359375 6.084375,48.9070313 11.6015625,51.15 C14.4203125,52.3015625 17.9953125,53.00625 21.8195313,53.1867188 C19.25,56.0140625 17.2304688,59.0304688 16.053125,61.8320313 C13.7414063,67.3234375 15.4,70.1421875 16.5945313,71.3453125 C17.3507813,72.1015625 18.76875,73.046875 21.0976563,73.046875 C22.446875,73.046875 24.096875,72.7289062 26.0992188,71.8867188 C28.909375,70.7007813 31.934375,68.6726563 34.7617188,66.0945313 C34.9421875,69.9101562 35.646875,73.4679687 36.7898438,76.2867188 C39.0328125,81.8039063 42.2039063,82.6289062 43.896875,82.6289062 C45.5898438,82.6289062 48.7609375,81.8039062 51.0039063,76.2867188 C52.1554688,73.4679688 52.8601563,69.8929688 53.040625,66.06875 C55.8679688,68.6382813 58.884375,70.6578125 61.6859375,71.8351563 C63.696875,72.6859375 65.346875,72.9953125 66.6875,72.9953125 C69.0164063,72.9953125 70.434375,72.05 71.190625,71.29375 C72.3851563,70.0992188 74.04375,67.271875 71.7320313,61.7804688 C70.5460938,58.9703125 68.5179688,55.9453125 65.9398438,53.1179688 C69.7554688,52.9375 73.3132813,52.2328125 76.1320313,51.0898438 C81.6492188,48.846875 82.4742188,45.6757813 82.4742188,43.9828125 C82.4742188,42.2898438 81.6664063,39.11875 76.1492188,36.8757813 L76.1492188,36.8757812 Z M63.3960937,21.484375 C65.7851562,20.3929688 66.9710937,20.5304688 67.203125,20.6507813 C67.3148437,20.8914063 67.4609375,22.0773438 66.3609375,24.4664063 C65.209375,26.984375 63.1640625,29.7773438 60.6203125,32.3296875 C59.33125,33.61875 57.9734375,34.7789062 56.5984375,35.7757813 C56.5039062,35.8445313 56.4007813,35.9132813 56.30625,35.9820312 C56.271875,36.0078125 56.2460938,36.025 56.2117188,36.0421875 C56.1429688,36.0851563 56.0742188,36.1367188 56.0140625,36.1796875 C55.9796875,36.2054688 55.9453125,36.2226562 55.9109375,36.2484375 C55.8507812,36.2914063 55.7820313,36.334375 55.721875,36.3773438 C55.6875,36.403125 55.653125,36.4203125 55.61875,36.4460938 C55.55,36.4890625 55.4898437,36.5320313 55.4210937,36.575 C55.3953125,36.5921875 55.3609375,36.609375 55.3351562,36.6265625 C55.2578125,36.678125 55.171875,36.7296875 55.0945313,36.78125 C55.0859375,36.7898438 55.06875,36.7984375 55.0601563,36.7984375 C54.965625,36.8585938 54.8710938,36.91875 54.7851562,36.9703125 C54.7765625,36.9789063 54.7679688,36.9789063 54.7507813,36.9875 C54.6734375,37.0390625 54.5960938,37.0820313 54.51875,37.125 C54.4929688,37.1421875 54.4757812,37.1507813 54.45,37.1679688 C54.38125,37.2109375 54.3210938,37.2453125 54.2523438,37.2796875 C54.2265625,37.296875 54.2007813,37.3054688 54.175,37.3226563 C54.10625,37.3570313 54.0460938,37.3914063 53.9859375,37.434375 C53.9601563,37.4429688 53.9429688,37.4601563 53.9171875,37.46875 C53.8484375,37.5117188 53.7796875,37.5460938 53.7023438,37.5804688 C53.6851563,37.5890625 53.6765625,37.5976563 53.659375,37.60625 C53.4875,37.6921875 53.3242188,37.778125 53.1609375,37.8640625 L53.109375,37.8898438 C53.0492188,37.9242188 52.9804688,37.95 52.9203125,37.984375 C52.8945313,37.9929688 52.8773438,38.0015625 52.8515625,38.01875 C52.8,38.0445313 52.7398438,38.0703125 52.6882813,38.0960938 C52.6625,38.1046875 52.6367188,38.121875 52.6195313,38.1304688 C52.5679688,38.15625 52.5164063,38.1820313 52.45625,38.1992188 C52.4304688,38.2078125 52.4132813,38.2164063 52.3875,38.225 C52.3273438,38.2507813 52.2671875,38.2765625 52.215625,38.3023438 C52.1984375,38.3109375 52.1898438,38.3109375 52.1726563,38.3195313 C52.1039063,38.3453125 52.0351563,38.3796875 51.9664063,38.4054688 C51.940625,38.4140625 51.9148438,38.4226563 51.8976563,38.43125 L51.76875,38.4828125 C51.734375,38.4914063 51.7085938,38.5085938 51.6742188,38.5171875 C51.6398438,38.5257813 51.6054688,38.5429688 51.5710938,38.5515625 C51.5367188,38.5601563 51.5023438,38.5773438 51.4679688,38.5859375 C51.4421875,38.5945313 51.4078125,38.603125 51.3820313,38.6117188 C51.3476563,38.6203125 51.3132813,38.6375 51.2703125,38.6460938 C51.2445313,38.6546875 51.2273438,38.6632812 51.2015625,38.6632812 C51.1585938,38.671875 51.1242188,38.6890625 51.08125,38.6976562 C50.9179688,38.7492187 50.7632813,38.7835937 50.6171875,38.8179687 L50.6,38.8179687 C50.5570313,38.8265625 50.5054688,38.8351562 50.4625,38.84375 L50.4453125,38.84375 C50.4023438,38.8523438 50.359375,38.8609375 50.3078125,38.8695312 L50.2992188,38.8695312 C50.2046875,38.8867188 50.11875,38.9039062 50.0242188,38.9125 C50.0070313,38.8953125 49.9984375,38.878125 49.98125,38.8609375 C49.9210938,38.7921875 49.8695313,38.7320312 49.809375,38.6632812 C49.7835938,38.6375 49.7578125,38.6117187 49.740625,38.5859375 C49.6632813,38.5 49.5859375,38.4226563 49.5,38.3453125 L49.4828125,38.328125 C49.3882813,38.2421875 49.3023438,38.15625 49.1992188,38.0703125 C49.1820313,38.0617187 49.1734375,38.0445312 49.15625,38.0359375 C49.0789063,37.9671875 48.9929688,37.8984375 48.9070313,37.8296875 L48.88125,37.8039062 L48.88125,37.7953125 L48.88125,37.7695312 C48.8898438,37.7265625 48.8898438,37.6921875 48.8984375,37.6492188 C48.8984375,37.6320312 48.9070313,37.6148438 48.9070313,37.5976562 C48.915625,37.5632813 48.915625,37.5289062 48.9242188,37.4859375 C48.9242188,37.46875 48.9328125,37.4515625 48.9328125,37.434375 C48.9414063,37.4 48.95,37.3570312 48.9585938,37.3226562 C48.9585938,37.3054687 48.9671875,37.2882812 48.9671875,37.2710937 L48.9929688,37.1421875 C48.9929688,37.125 49.0015625,37.1164062 49.0015625,37.0992187 C49.0273438,36.9875 49.0617188,36.8671875 49.0960938,36.7382812 C49.1046875,36.7210937 49.1046875,36.7039062 49.1132813,36.6867187 C49.1304688,36.64375 49.1390625,36.6007812 49.15625,36.5492187 C49.1648438,36.5320312 49.1734375,36.50625 49.1734375,36.4804687 C49.190625,36.4375 49.1992188,36.3945312 49.2164063,36.3515625 C49.225,36.3257812 49.2335938,36.3085937 49.2421875,36.2828125 C49.259375,36.2398437 49.2765625,36.1882812 49.29375,36.1453125 C49.3023438,36.128125 49.3109375,36.1023437 49.3195313,36.0851562 C49.3367188,36.025 49.3625,35.9734375 49.3882813,35.9132812 C49.3882813,35.9046875 49.396875,35.8875 49.396875,35.8789062 C49.4226563,35.8101562 49.4484375,35.7328125 49.4828125,35.6640625 C49.4914063,35.646875 49.5,35.6296875 49.5,35.6210937 C49.5257813,35.5609375 49.5429688,35.509375 49.56875,35.4492187 C49.5773438,35.4234375 49.5859375,35.3976562 49.603125,35.371875 C49.6203125,35.3203125 49.6460938,35.26875 49.671875,35.2171875 C49.6804688,35.1914062 49.6976563,35.165625 49.70625,35.13125 C49.7320313,35.0796875 49.7492188,35.028125 49.775,34.9765625 C49.7835938,34.9507812 49.8007813,34.925 49.809375,34.890625 C49.8351563,34.8390625 49.8609375,34.7789062 49.8867188,34.7273437 C49.8953125,34.7015625 49.9125,34.684375 49.9210938,34.6585937 C49.9640625,34.58125 49.9984375,34.4953125 50.0414063,34.4179687 C50.0414063,34.4179687 50.0414063,34.409375 50.05,34.409375 C50.0929688,34.3320312 50.1273438,34.2546875 50.1703125,34.16875 C50.1875,34.1429687 50.1960938,34.1171875 50.2132813,34.0914062 C50.2476563,34.03125 50.2734375,33.9796875 50.3078125,33.9195312 C50.325,33.8851562 50.3421875,33.859375 50.359375,33.825 C50.3851563,33.7734375 50.4195313,33.7132812 50.4539063,33.6617187 C50.4710938,33.6273437 50.4882813,33.5929687 50.5140625,33.5585937 C50.5484375,33.5070312 50.5742188,33.446875 50.6085938,33.3867187 C50.6257813,33.3523437 50.6429688,33.3265625 50.6601563,33.2921875 C50.703125,33.2234375 50.7375,33.1546875 50.7804688,33.0945312 C50.7976563,33.06875 50.80625,33.0515625 50.8234375,33.0257812 C50.875,32.9398437 50.9351563,32.8453125 50.9867188,32.759375 C51.0039063,32.7335937 51.0210938,32.7078125 51.0296875,32.690625 L51.1585938,32.484375 C51.184375,32.45 51.2015625,32.415625 51.2273438,32.38125 C51.2617188,32.3210937 51.3046875,32.2609375 51.3390625,32.2007812 C51.3648438,32.1664062 51.390625,32.1234375 51.4164063,32.0890625 C51.459375,32.0289062 51.49375,31.96875 51.5367188,31.9085937 C51.5625,31.8742187 51.5882813,31.83125 51.6140625,31.796875 C51.6570313,31.7367187 51.7,31.6679687 51.7429688,31.6078125 C51.76875,31.5734375 51.7859375,31.5390625 51.8117188,31.5046875 C51.8804688,31.4101562 51.940625,31.315625 52.009375,31.2210937 L52.0179688,31.2125 C53.0234375,29.8289062 54.1835938,28.4710937 55.48125,27.1734375 C58.0851562,24.6726562 60.878125,22.6359375 63.3960937,21.484375 L63.3960937,21.484375 Z M46.0453125,45.3664062 C45.8304688,45.7273438 45.5296875,46.0367187 45.16875,46.2515625 C45.1429687,46.26875 45.1171875,46.2773437 45.0914062,46.2945312 C45.0570312,46.3117187 45.0140625,46.3375 44.9710937,46.3546875 C44.9023438,46.3890625 44.8335937,46.4148438 44.7648437,46.440625 C44.2234375,46.6382812 43.6132812,46.6382812 43.071875,46.440625 L43.0546875,46.4320312 C42.9859375,46.40625 42.9171875,46.3804687 42.8570312,46.3460937 L42.8398438,46.3375 C42.3414062,46.0882812 41.9375,45.6757812 41.696875,45.16875 C41.6539062,45.0742187 41.6195313,44.9796875 41.5851562,44.8851562 L41.5851562,44.8765625 C41.525,44.6960937 41.490625,44.515625 41.4820312,44.3265625 C41.4734375,44.2664062 41.4734375,44.1976562 41.4734375,44.1375 C41.4734375,43.8625 41.5164062,43.5960937 41.6023437,43.346875 L41.6023437,43.3382812 C41.6367187,43.2265625 41.6882812,43.1148437 41.7484375,43.003125 C41.9804687,42.5648437 42.35,42.1953125 42.796875,41.9632812 C42.9085937,41.903125 43.0289062,41.8515625 43.1578125,41.8085937 L43.3382812,41.7570312 C43.3984375,41.7398437 43.45,41.73125 43.5101562,41.7226562 L43.51875,41.7226562 C43.5703125,41.7140625 43.6304687,41.7054687 43.690625,41.7054687 L43.7078125,41.7054687 C43.759375,41.7054687 43.8023437,41.696875 43.8539062,41.696875 L44.0859375,41.696875 C44.1375,41.696875 44.1890625,41.7054687 44.2492187,41.7140625 L44.275,41.7140625 C44.3179687,41.7226562 44.3609375,41.73125 44.4125,41.7398437 C44.4296875,41.7398437 44.446875,41.7484375 44.4640625,41.7484375 C44.5070312,41.7570312 44.55,41.765625 44.584375,41.7828125 C44.6015625,41.7914062 44.61875,41.7914062 44.6359375,41.8 C44.7476562,41.834375 44.859375,41.8773437 44.9710937,41.9289062 C45.44375,42.1523437 45.8390625,42.5304687 46.0796875,42.9945312 L46.0796875,43.003125 C46.1226562,43.0890625 46.165625,43.175 46.2,43.278125 C46.303125,43.553125 46.3546875,43.8367187 46.3546875,44.1375 C46.3546875,44.4039062 46.3117187,44.6617187 46.234375,44.9023437 L46.2257812,44.9195312 C46.2,44.996875 46.1742187,45.0742187 46.1398437,45.1429687 C46.13125,45.2117187 46.0882812,45.2890625 46.0453125,45.3664062 L46.0453125,45.3664062 Z M41.7398437,14.2828125 C42.659375,11.825 43.5960937,11.0859375 43.8453125,10.9914063 C44.0945312,11.0773438 45.03125,11.8164063 45.9507812,14.2828125 C46.9132812,16.878125 47.4460937,20.2984375 47.4460937,23.9078125 C47.4460937,25.50625 47.3429687,27.0703125 47.1367187,28.5570313 L47.0851562,28.634375 C47.0335937,28.7117187 46.9734375,28.7890625 46.921875,28.8664062 C46.8875,28.9179687 46.8445312,28.978125 46.8101562,29.0296875 C46.7585937,29.115625 46.6984375,29.1929687 46.646875,29.2789062 C46.6125,29.3304687 46.5867187,29.3734375 46.5523437,29.425 C46.4835937,29.528125 46.4234375,29.6226562 46.3632812,29.7257812 C46.3460937,29.7601562 46.3203125,29.7859375 46.303125,29.8203125 C46.2171875,29.9492187 46.1398437,30.0867187 46.0625,30.215625 C46.0453125,30.2414062 46.028125,30.2757812 46.0109375,30.3015625 C45.9507812,30.4046875 45.890625,30.4992187 45.8304687,30.6023437 C45.8046875,30.6453125 45.7789062,30.6882812 45.753125,30.7398437 C45.7015625,30.8257812 45.6585937,30.9117187 45.6070312,30.9976562 C45.58125,31.0492187 45.5554687,31.0921875 45.5210937,31.14375 C45.478125,31.2210937 45.4351562,31.3070312 45.3921875,31.384375 L45.3148437,31.5390625 C45.271875,31.6164062 45.2289062,31.7023437 45.1859375,31.7796875 C45.1601562,31.83125 45.134375,31.8742187 45.1085937,31.9257812 C45.065625,32.0117187 45.0226562,32.0890625 44.9882812,32.175 C44.9625,32.2179687 44.9453125,32.2609375 44.9195312,32.3125 C44.8765625,32.4070312 44.8335937,32.5015625 44.790625,32.5875 L44.7390625,32.690625 C44.6789062,32.8195312 44.6273437,32.9398437 44.5671875,33.06875 C44.5671875,33.0773437 44.5585937,33.0773437 44.5585937,33.0859375 C44.5070312,33.20625 44.4554687,33.3265625 44.4039062,33.4382812 C44.3867187,33.4726562 44.3695312,33.515625 44.3609375,33.55 L44.2578125,33.8078125 C44.240625,33.8507812 44.2234375,33.89375 44.20625,33.9453125 C44.1804687,34.0226562 44.1460937,34.1 44.1203125,34.1773437 C44.103125,34.2203125 44.0859375,34.271875 44.06875,34.3148437 C44.0429687,34.3921875 44.0171875,34.4609375 43.9914062,34.5382812 C43.9742187,34.58125 43.9570312,34.6328125 43.9484375,34.6757812 C43.9226562,34.753125 43.896875,34.8304688 43.8796875,34.8992188 C43.8710937,34.925 43.8625,34.959375 43.8539062,34.9851563 C43.8453125,34.9507813 43.828125,34.9164063 43.8195312,34.8820313 C43.8023437,34.8132813 43.7765625,34.753125 43.7507812,34.684375 C43.7335937,34.6328125 43.7164062,34.58125 43.6992187,34.5210938 C43.6734375,34.4523438 43.65625,34.3835938 43.6304687,34.3234375 C43.6132812,34.271875 43.5875,34.2117188 43.5703125,34.1601563 L43.4929687,33.9539063 C43.4757812,33.9023438 43.45,33.8507813 43.4328125,33.790625 C43.4070312,33.721875 43.3726562,33.6445313 43.346875,33.5671875 C43.3296875,33.515625 43.3039062,33.4726563 43.2867187,33.4210938 C43.24375,33.3265625 43.209375,33.2320313 43.1664062,33.1375 C43.1492187,33.0859375 43.1234375,33.0429688 43.10625,32.9914063 C43.0632812,32.8882813 43.0117187,32.79375 42.96875,32.690625 C42.9429687,32.6390625 42.9171875,32.5875 42.9,32.5359375 C42.865625,32.4585938 42.83125,32.3898438 42.796875,32.3125 C42.7710937,32.2523438 42.7453125,32.2007813 42.7109375,32.140625 L42.6078125,31.934375 C42.5820312,31.8742188 42.5476562,31.8140625 42.5132812,31.7539063 C42.4789062,31.6851563 42.4445312,31.6164063 42.4015625,31.5476563 C42.3671875,31.4875 42.3414062,31.4273438 42.3070312,31.3671875 C42.2726562,31.2984375 42.2296875,31.2296875 42.1953125,31.1609375 L42.0921875,30.9804688 C42.0492187,30.9117188 42.0148437,30.834375 41.971875,30.765625 C41.9375,30.7054688 41.903125,30.6539063 41.86875,30.59375 C41.8257812,30.5164063 41.7742187,30.4304688 41.73125,30.353125 C41.7054687,30.3015625 41.6710937,30.25 41.6453125,30.2070313 C41.5679687,30.078125 41.490625,29.9578125 41.4132812,29.8289063 C41.3875,29.7773438 41.353125,29.734375 41.31875,29.6828125 C41.2671875,29.596875 41.215625,29.5195313 41.1554687,29.4335938 C41.1210937,29.3734375 41.078125,29.321875 41.04375,29.2617188 C40.9921875,29.184375 40.940625,29.1070313 40.8890625,29.0382813 C40.8546875,28.978125 40.8117187,28.9265625 40.76875,28.8664063 C40.7171875,28.7890625 40.665625,28.7203125 40.6140625,28.6429688 C40.596875,28.6171875 40.5796875,28.5914063 40.5539062,28.5570313 C40.3476562,27.0617188 40.2445312,25.4890625 40.2445312,23.8820313 C40.2445312,20.2984375 40.7773437,16.878125 41.7398437,14.2828125 L41.7398437,14.2828125 Z M20.5046875,20.69375 C20.7453125,20.5820312 21.93125,20.4359375 24.3203125,21.5359375 C26.8382813,22.6875 29.63125,24.7328125 32.1835938,27.2851562 C33.4726562,28.5742188 34.6328125,29.9320313 35.6296875,31.3070313 C35.6984375,31.4101562 35.7757812,31.5046875 35.8445312,31.5992187 C35.8703125,31.6335937 35.8875,31.659375 35.9132812,31.69375 C35.95625,31.7625 36.0078125,31.8226562 36.0507812,31.8914063 C36.0765625,31.9257812 36.1023438,31.96875 36.128125,32.003125 C36.1710938,32.0632812 36.2054688,32.1234375 36.2484375,32.1835938 C36.2742188,32.2179687 36.3,32.2609375 36.3257812,32.2953125 C36.3601562,32.3554688 36.403125,32.415625 36.4375,32.4671875 C36.4632813,32.5015625 36.4890625,32.5359375 36.50625,32.5789063 C36.5492188,32.6390625 36.5835937,32.6992188 36.6179688,32.759375 C36.6351563,32.79375 36.6609375,32.828125 36.678125,32.8539063 L36.8070313,33.0601563 C36.815625,33.0773438 36.8328125,33.103125 36.85,33.1203125 C36.9015625,33.20625 36.9617188,33.3007813 37.0132812,33.3867188 C37.0304687,33.4125 37.0390625,33.4296875 37.0476562,33.4554688 C37.0820312,33.5242188 37.125,33.584375 37.159375,33.653125 C37.1765625,33.6875 37.19375,33.7132813 37.2109375,33.7476563 C37.2453125,33.7992188 37.2710937,33.859375 37.3054687,33.9109375 C37.3226563,33.9453125 37.3398437,33.9796875 37.3570312,34.0054688 C37.3828125,34.0570313 37.4171875,34.1085938 37.4429687,34.1601563 C37.4601562,34.1945313 37.4773437,34.2289063 37.4945313,34.2546875 L37.571875,34.409375 C37.5890625,34.44375 37.60625,34.4695313 37.6234375,34.5039063 C37.6492188,34.5640625 37.6835938,34.615625 37.709375,34.6671875 C37.7179688,34.6929688 37.7351563,34.71875 37.74375,34.7445313 C37.7867187,34.821875 37.8210937,34.8992188 37.8554688,34.9765625 C37.8554688,34.9851563 37.8554688,34.9851563 37.8640625,34.99375 C37.8984375,35.0625 37.9328125,35.1398438 37.9671875,35.2085938 C37.9757813,35.234375 37.9929688,35.2601563 38.0015625,35.2859375 C38.0273438,35.3375 38.0445312,35.3890625 38.0703125,35.4320313 C38.0789063,35.4578125 38.0960938,35.4921875 38.1046875,35.5179688 C38.121875,35.5609375 38.1390625,35.6125 38.1648437,35.6554688 C38.1734375,35.68125 38.190625,35.715625 38.1992187,35.7414063 L38.2507812,35.8703125 C38.259375,35.8960938 38.2765625,35.921875 38.2851562,35.95625 C38.3023437,35.9992188 38.3195312,36.0421875 38.3367187,36.09375 L38.3625,36.1710938 L38.4140625,36.3257813 C38.4226563,36.3429688 38.4226563,36.3601563 38.43125,36.36875 C38.4570312,36.4375 38.4742187,36.4976563 38.5,36.5664063 C38.5085938,36.5835938 38.5085938,36.6007813 38.5171875,36.6179688 C38.534375,36.6609375 38.5429688,36.7125 38.5601562,36.7554688 C38.56875,36.78125 38.5773437,36.7984375 38.5773437,36.8242188 C38.5859375,36.8585938 38.603125,36.9015625 38.6117188,36.9359375 C38.6203125,36.9617188 38.6289062,36.9875 38.6289062,37.0046875 L38.6546875,37.1078125 C38.6632813,37.1335938 38.6632813,37.159375 38.671875,37.1765625 L38.6976563,37.2796875 C38.70625,37.3054688 38.70625,37.3226563 38.7148437,37.3484375 C38.7234375,37.3828125 38.7320312,37.4257813 38.740625,37.4601563 C38.740625,37.4773438 38.7492188,37.4945313 38.7492188,37.5117188 L38.775,37.6664063 L38.775,37.6921875 C38.7835938,37.7351563 38.7921875,37.778125 38.7921875,37.8210938 C38.7921875,37.8382813 38.8007812,37.8554688 38.8007812,37.8726563 C38.8007812,37.8984375 38.809375,37.915625 38.809375,37.9414063 C38.7921875,37.95 38.7835938,37.9671875 38.775,37.9757813 C38.70625,38.0273438 38.6460938,38.0875 38.5773438,38.1390625 C38.5515625,38.15625 38.534375,38.1820313 38.5085938,38.1992188 C38.3367188,38.3539063 38.1734375,38.5171875 38.0101563,38.6890625 L37.9585937,38.740625 C37.8984375,38.809375 37.8382813,38.878125 37.778125,38.9554688 C37.7695312,38.9640625 37.7609375,38.9726563 37.7523438,38.9898438 C37.7351562,38.9898438 37.7179687,38.9898438 37.7007812,38.98125 C37.6835937,38.98125 37.6664063,38.9726563 37.6492187,38.9726563 C37.6148437,38.9640625 37.5804687,38.9640625 37.5460937,38.9554688 C37.5289062,38.9554688 37.5117187,38.946875 37.503125,38.946875 L37.3742187,38.9210938 C37.365625,38.9210938 37.3570312,38.9210938 37.3484375,38.9125 C37.296875,38.9039063 37.2367187,38.8867188 37.1851562,38.878125 C37.1765625,38.878125 37.1679688,38.878125 37.159375,38.8695313 C37.1164062,38.8609375 37.0648437,38.84375 37.0132812,38.8351563 C36.9960938,38.8265625 36.9789063,38.8265625 36.9617187,38.8179688 C36.91875,38.809375 36.884375,38.8007813 36.8414062,38.7835938 C36.815625,38.775 36.7984375,38.775 36.7726562,38.7664063 C36.7382812,38.7578125 36.6953125,38.740625 36.6523438,38.7320313 C36.6265625,38.7234375 36.609375,38.7148438 36.5835937,38.7148438 C36.540625,38.70625 36.50625,38.6890625 36.4632813,38.6804688 C36.4375,38.671875 36.4203125,38.6632813 36.3945312,38.6632813 C36.3515625,38.6460938 36.3,38.6289063 36.2570312,38.6203125 C36.2398437,38.6117188 36.2226562,38.6117188 36.2054687,38.603125 C36.1367187,38.5773438 36.0765625,38.5601563 36.0078125,38.534375 C35.990625,38.5257813 35.9820312,38.5257813 35.9648437,38.5171875 C35.9132812,38.5 35.853125,38.4742188 35.8015625,38.4570313 L35.7242187,38.43125 C35.68125,38.4140625 35.6296875,38.396875 35.5867187,38.3796875 C35.5609375,38.3710938 35.5265625,38.3539063 35.5007812,38.3453125 L35.371875,38.29375 C35.3375,38.2851563 35.3117187,38.2679688 35.2773437,38.2507813 C35.234375,38.2335938 35.1828125,38.2078125 35.1398437,38.190625 C35.1140625,38.1734375 35.0796875,38.1648438 35.0539062,38.1476563 C35.0023437,38.121875 34.9507812,38.1046875 34.8992187,38.0789063 C34.8734375,38.0703125 34.8476562,38.053125 34.821875,38.0445313 C34.7445312,38.0101563 34.6671875,37.9757813 34.5898437,37.9328125 L34.5382812,37.9070313 C34.478125,37.8726563 34.409375,37.846875 34.3492187,37.8125 C34.3148437,37.7953125 34.2890625,37.778125 34.2546875,37.7695313 L34.1,37.6921875 L33.996875,37.640625 L33.8421875,37.5632813 C33.8078125,37.5460938 33.7734375,37.5289063 33.7390625,37.503125 C33.6875,37.4773438 33.6359375,37.4429688 33.584375,37.4171875 C33.55,37.4 33.515625,37.3828125 33.48125,37.3570313 C33.4210937,37.3226563 33.3695312,37.2882813 33.309375,37.2539063 C33.2835937,37.2367188 33.2492187,37.2195313 33.2234375,37.2023438 C33.1375,37.1507813 33.0515625,37.0992188 32.9570312,37.0476563 C32.9484375,37.0390625 32.93125,37.0304688 32.9226562,37.0304688 C32.8453125,36.9789063 32.7679687,36.9359375 32.6820312,36.884375 C32.6476562,36.8671875 32.621875,36.8414063 32.5875,36.8242188 C32.5273437,36.7898438 32.4671875,36.746875 32.4070312,36.7125 C32.3726562,36.6867188 32.3382812,36.6695313 32.2953125,36.64375 C32.2351562,36.609375 32.175,36.5664063 32.1234375,36.5320313 C32.0890625,36.50625 32.0460937,36.4804688 32.0117187,36.4546875 C31.9515625,36.4117188 31.8914062,36.3773438 31.83125,36.334375 C31.796875,36.3085938 31.7539062,36.2828125 31.7195312,36.2570313 C31.6507812,36.2140625 31.590625,36.1625 31.521875,36.1195313 C31.4875,36.09375 31.4617187,36.0765625 31.4273437,36.0507813 C31.3328125,35.9820313 31.2296875,35.9132813 31.1351562,35.8445313 C29.7515625,34.8390625 28.39375,33.6789063 27.0960937,32.38125 C24.54375,29.8289063 22.4984375,27.0359375 21.346875,24.5179688 C20.2554687,22.1117188 20.3929687,20.934375 20.5046875,20.69375 L20.5046875,20.69375 Z M10.8625,44.0515625 C10.9484375,43.8023437 11.6875,42.865625 14.1539062,41.9460937 C16.7492187,40.9835937 20.1695312,40.4507812 23.7789062,40.4507812 C25.3773438,40.4507812 26.9414062,40.5539062 28.428125,40.7601563 C28.4453125,40.7773438 28.4710938,40.7859375 28.4882812,40.803125 C28.5742188,40.8632812 28.6601562,40.9234375 28.7546875,40.9835938 C28.7976563,41.009375 28.840625,41.04375 28.8835938,41.0695313 C28.9953125,41.146875 29.115625,41.2242188 29.2273438,41.3015625 C29.2445313,41.3101563 29.253125,41.31875 29.2703125,41.3273438 C29.3992188,41.4132813 29.528125,41.490625 29.6570313,41.5765625 C29.6914062,41.6023438 29.7257813,41.6195313 29.7601563,41.6453125 C29.8546875,41.7054688 29.9492188,41.765625 30.04375,41.8171875 L30.1726563,41.8945312 L30.4304688,42.0492188 L30.559375,42.1265625 C30.6539063,42.178125 30.7398438,42.2296875 30.8257813,42.28125 C30.8601563,42.2984375 30.903125,42.3242188 30.9375,42.3414062 L31.2726563,42.521875 L31.3242188,42.5476563 C31.453125,42.6164063 31.590625,42.6851563 31.7195313,42.7539062 C31.728125,42.7625 31.7367188,42.7625 31.7453125,42.7710937 C31.865625,42.83125 31.9773438,42.8914062 32.0976563,42.9429687 C32.1234375,42.9601562 32.1578125,42.96875 32.1835938,42.9859375 C32.278125,43.0375 32.38125,43.0804688 32.4757813,43.1234375 C32.5101563,43.140625 32.5359375,43.1492188 32.5703125,43.1664063 C32.6734375,43.209375 32.7679688,43.2523438 32.8625,43.2953125 C32.8882813,43.3039063 32.9140625,43.3210938 32.9398438,43.3296875 C33.0515625,43.38125 33.171875,43.4328125 33.2835938,43.4757812 C33.2921875,43.4757812 33.3007813,43.484375 33.309375,43.484375 C33.5671875,43.5875 33.825,43.690625 34.0742188,43.7765625 C34.0828125,43.7765625 34.0914063,43.7851562 34.1,43.7851562 C34.2117188,43.828125 34.3320313,43.8625 34.44375,43.9054687 C34.4609375,43.9140625 34.478125,43.9140625 34.4953125,43.9226562 C34.6070313,43.9570312 34.7101563,43.9914062 34.8132813,44.0257813 C34.821875,44.0257813 34.8304688,44.034375 34.8390625,44.034375 C34.7960938,44.0429688 34.753125,44.0601562 34.71875,44.0773438 C34.6671875,44.0945313 34.6070313,44.1117188 34.5554688,44.1289063 C34.4953125,44.1460938 34.4265625,44.171875 34.3664063,44.1976563 C34.3148438,44.2148438 34.2546875,44.2320312 34.203125,44.2578125 C34.134375,44.2835938 34.0742188,44.3007813 34.0054688,44.3265625 C33.9539063,44.34375 33.89375,44.3695313 33.8421875,44.3867188 C33.7734375,44.4125 33.7132813,44.4382813 33.6445313,44.4640625 C33.5929688,44.4898437 33.5328125,44.5070313 33.48125,44.5328125 C33.4125,44.5585937 33.3523438,44.584375 33.2835938,44.6101562 C33.2320313,44.6359375 33.171875,44.6617187 33.1203125,44.6789062 C32.9914063,44.7304687 32.8710938,44.790625 32.7421875,44.8421875 C32.6820313,44.8679687 32.621875,44.89375 32.5703125,44.9195312 C32.5015625,44.9453125 32.4414063,44.9796875 32.3726563,45.0140625 C32.3125,45.0398437 32.2523438,45.0742187 32.1921875,45.1 C32.1234375,45.134375 32.0632813,45.1601562 31.9945313,45.1945312 C31.934375,45.2289062 31.8742188,45.2546875 31.8140625,45.2890625 C31.7453125,45.3234375 31.6851563,45.3578125 31.6164063,45.3921875 C31.55625,45.4265625 31.4960938,45.4609375 31.4273438,45.4867188 C31.3585938,45.5210937 31.2984375,45.5554687 31.2296875,45.5898438 C31.1695313,45.6242188 31.1007813,45.6585938 31.040625,45.6929688 C30.9804688,45.7273438 30.9117188,45.7617188 30.8515625,45.7960938 C30.7828125,45.8304688 30.7140625,45.8734375 30.6539063,45.9078125 L30.4734375,46.0109375 C30.3960938,46.0539063 30.31875,46.1054688 30.2414063,46.1484375 C30.1898438,46.1828125 30.1382813,46.2085938 30.0867188,46.2429688 C29.9578125,46.3203125 29.8375,46.3976563 29.7085938,46.475 C29.665625,46.5007813 29.6140625,46.5351563 29.5710938,46.5609375 C29.4851563,46.6125 29.3992188,46.6640625 29.321875,46.7242188 C29.2703125,46.7585938 29.2101563,46.7929688 29.1585938,46.8273438 L28.9265625,46.9820313 C28.875,47.0164063 28.8148438,47.059375 28.7632813,47.09375 C28.6859375,47.1453125 28.6085938,47.196875 28.53125,47.2570313 L28.4539063,47.3085938 C26.9585938,47.5148438 25.3859375,47.6179688 23.7789063,47.6179688 C20.1695313,47.6179688 16.7492188,47.0851563 14.1539063,46.1226563 C11.6875,45.2375 10.9484375,44.3007813 10.8625,44.0515625 L10.8625,44.0515625 Z M24.3632812,66.55 C21.9742187,67.6414063 20.7882812,67.5039062 20.55625,67.3835938 C20.4445312,67.1429688 20.2984375,65.9570312 21.3984375,63.5679687 C22.55,61.05 24.5953125,58.2570313 27.1390625,55.7046875 C28.428125,54.415625 29.7859375,53.2554687 31.1609375,52.2585937 C31.2554688,52.1898438 31.3585938,52.1210937 31.453125,52.0523437 C31.4789063,52.0351562 31.5132813,52.009375 31.5390625,51.9921875 C31.6078125,51.9492187 31.6765625,51.8976562 31.7367188,51.8546875 C31.7710938,51.8289062 31.8054688,51.8117187 31.83125,51.7859375 C31.9,51.7429687 31.9601563,51.7 32.0289063,51.6570312 C32.0632813,51.6398437 32.0890625,51.6140625 32.1148438,51.596875 C32.1921875,51.5453125 32.2609375,51.5023437 32.3382813,51.4507812 C32.3554688,51.4421875 32.3726563,51.425 32.3984375,51.4164062 C32.5875,51.2960937 32.7765625,51.1757812 32.9570313,51.0640625 C32.9742188,51.0554687 32.9828125,51.046875 33,51.0382812 C33.0773438,50.9867187 33.1546875,50.94375 33.2320313,50.9007812 C33.2492188,50.8921875 33.2664063,50.8835937 33.275,50.875 C33.3523438,50.8320312 33.4296875,50.7804687 33.5070313,50.7375 C33.515625,50.7289062 33.5242188,50.7289062 33.5414063,50.7203125 C35.1914063,49.7835937 36.5492188,49.29375 37.5375,49.1304687 C37.5632813,49.121875 37.5976563,49.121875 37.6234375,49.1132812 C37.640625,49.1304687 37.6492188,49.1476562 37.6664063,49.1648437 C37.7265625,49.2421875 37.7867188,49.3109375 37.846875,49.3796875 C37.8726563,49.4054687 37.8984375,49.4398437 37.9242188,49.465625 C38.0101563,49.5601562 38.0960938,49.6632812 38.190625,49.7578125 L38.2164063,49.7835937 C38.3023438,49.8695312 38.3882813,49.946875 38.4742188,50.0328125 C38.5,50.0585937 38.534375,50.084375 38.56875,50.11875 L38.775,50.2992187 L38.8265625,50.3507812 L38.8265625,50.3679687 C38.8265625,50.3851562 38.8179688,50.4023437 38.8179688,50.4195312 C38.809375,50.4539062 38.809375,50.4882812 38.8007813,50.5226562 C38.8007813,50.5398437 38.7921875,50.565625 38.7921875,50.5828125 L38.7664063,50.6859375 C38.7664063,50.703125 38.7578125,50.7289063 38.7492188,50.7460938 C38.740625,50.7890625 38.7320313,50.8234375 38.7234375,50.8664063 C38.7234375,50.8835938 38.7148438,50.8921875 38.7148438,50.909375 C38.6976563,50.9609375 38.6890625,51.0210937 38.671875,51.08125 C38.6632813,51.0984375 38.6632813,51.115625 38.6546875,51.1328125 C38.6460938,51.1757813 38.6289063,51.21875 38.6203125,51.2617188 C38.6117188,51.2875 38.603125,51.3046875 38.603125,51.3304688 C38.5945313,51.3648437 38.5773438,51.4078125 38.56875,51.4507812 L38.5429688,51.528125 C38.5257813,51.5710937 38.5171875,51.6140625 38.5,51.6570312 C38.4914063,51.6828125 38.4828125,51.7 38.4742188,51.7257812 C38.4484375,51.7859375 38.43125,51.8546875 38.4054688,51.9148437 C38.4054688,51.9234375 38.396875,51.9320313 38.396875,51.940625 C38.3710938,52.0007812 38.3539063,52.0609375 38.328125,52.1210937 L38.3023438,52.1984375 C38.2851563,52.2414062 38.2679688,52.284375 38.2507813,52.3359375 C38.2421875,52.3617187 38.225,52.3875 38.2164063,52.421875 C38.1992188,52.4648437 38.1820313,52.5078125 38.15625,52.559375 C38.1476563,52.5851562 38.1304688,52.6109375 38.121875,52.6453125 C38.0960938,52.696875 38.0789063,52.7484375 38.053125,52.8 C38.0445313,52.8171875 38.0359375,52.8429687 38.0273438,52.8601562 C37.9929688,52.9375 37.9585938,53.00625 37.9242188,53.0835937 C37.915625,53.109375 37.9070313,53.1265625 37.8898438,53.1523437 C37.8640625,53.2039062 37.8382813,53.2640625 37.8125,53.315625 C37.7953125,53.3414062 37.7867188,53.3757812 37.7695313,53.4015625 L37.6921875,53.55625 C37.675,53.590625 37.6578125,53.6164062 37.6492188,53.6507812 C37.6234375,53.7023437 37.5976563,53.7539062 37.5632813,53.8140625 C37.5460938,53.8398437 37.5375,53.865625 37.5203125,53.9 C37.4773438,53.9773437 37.434375,54.0632812 37.3914063,54.140625 C37.3914063,54.1492187 37.3828125,54.1578125 37.3828125,54.1664062 L37.2539063,54.3984375 C37.2367188,54.4242187 37.2195313,54.4585937 37.2023438,54.484375 C37.1679688,54.5445312 37.1335938,54.5960937 37.0992188,54.65625 C37.0820313,54.690625 37.0648438,54.725 37.0390625,54.7507812 C37.0046875,54.8109375 36.9703125,54.8625 36.9359375,54.9226562 C36.91875,54.9570312 36.9015625,54.9828125 36.8757813,55.0171875 C36.8328125,55.0859375 36.7984375,55.1460937 36.7554688,55.2148437 C36.7382813,55.240625 36.7296875,55.2578125 36.7125,55.2835937 C36.6523438,55.3695312 36.6007813,55.4640625 36.540625,55.55 C36.5234375,55.5757812 36.50625,55.5929687 36.4976563,55.61875 C36.4546875,55.6875 36.4117188,55.75625 36.3601563,55.825 C36.334375,55.859375 36.3171875,55.89375 36.2914063,55.928125 C36.2484375,55.9882812 36.2054688,56.0484375 36.1625,56.1171875 C36.1367188,56.1515625 36.1195313,56.1859375 36.09375,56.2203125 C36.0507813,56.2890625 36.0078125,56.3492187 35.95625,56.4179687 C35.9390625,56.4523437 35.9132813,56.478125 35.8960938,56.5125 C35.8273438,56.6070312 35.7585938,56.7015625 35.6898438,56.8046875 C34.684375,58.1882812 33.5242188,59.5460937 32.2265625,60.84375 C29.6742188,63.3617187 26.88125,65.3984375 24.3632813,66.55 L24.3632812,66.55 Z M46.0195313,73.7515625 C45.1,76.209375 44.1632813,76.9484375 43.9140625,77.0429687 C43.6648438,76.9570312 42.728125,76.2179687 41.8085938,73.7515625 C40.8460938,71.15625 40.3132813,67.7359375 40.3132813,64.1265625 C40.3132813,62.528125 40.4164063,60.9640625 40.6226563,59.4773437 L40.6742188,59.4 C40.7257813,59.3226562 40.7859375,59.2367187 40.8375,59.159375 L40.940625,59.0046875 C41.0007813,58.91875 41.0523438,58.8328125 41.1039063,58.7554687 C41.1382813,58.7039062 41.1640625,58.6609375 41.1984375,58.609375 C41.2671875,58.50625 41.3273438,58.403125 41.3875,58.3085937 C41.4046875,58.2742187 41.4304688,58.2484375 41.4476563,58.2140625 C41.5335938,58.0851562 41.6109375,57.9476562 41.6882813,57.81875 C41.7054688,57.784375 41.7226563,57.7585937 41.7398438,57.7242187 C41.8,57.6210937 41.8601563,57.5265625 41.9203125,57.4234375 C41.9460938,57.3804687 41.971875,57.3289062 41.9976563,57.2859375 C42.0492188,57.2 42.0921875,57.1140625 42.14375,57.0367187 C42.1695313,56.9851562 42.2039063,56.9335937 42.2296875,56.8820312 C42.2726563,56.8046875 42.315625,56.7273437 42.3585938,56.6414062 C42.384375,56.5898437 42.4101563,56.5382812 42.4445313,56.4867188 C42.4875,56.409375 42.5304688,56.3320312 42.5648438,56.2546875 L42.6421875,56.1 C42.6851563,56.0226562 42.7195313,55.9367187 42.7625,55.859375 C42.7882813,55.8164062 42.8054688,55.7648437 42.83125,55.721875 C42.8742188,55.6273438 42.9171875,55.5414063 42.9601563,55.4554688 C42.9773438,55.4210937 42.9945313,55.3867188 43.0117188,55.34375 C43.071875,55.2148438 43.1234375,55.0945313 43.1835938,54.965625 C43.1921875,54.9484375 43.1921875,54.9398438 43.2007813,54.9226563 C43.2523438,54.8109375 43.2953125,54.6992188 43.3382813,54.5875 C43.3554688,54.5445313 43.3726563,54.5015625 43.3898438,54.4671875 C43.4242188,54.38125 43.4585938,54.3039063 43.484375,54.2179688 C43.5015625,54.175 43.51875,54.1234375 43.5359375,54.0804688 C43.5617188,54.003125 43.5960938,53.9257813 43.621875,53.8570313 C43.6390625,53.8054688 43.65625,53.7625 43.6734375,53.7109375 C43.6992188,53.6335938 43.725,53.5648438 43.7507813,53.4960938 C43.7679688,53.4445313 43.7851563,53.4015625 43.8023438,53.35 C43.828125,53.2726563 43.8539063,53.2039062 43.8710938,53.1265625 C43.8796875,53.0921875 43.8882813,53.0664062 43.9054688,53.0320312 C43.9140625,53.0664062 43.93125,53.1007812 43.9398438,53.1351563 C43.9570313,53.2039062 43.9828125,53.2726563 44.0085938,53.3328125 C44.0257813,53.384375 44.0429688,53.4359375 44.0601563,53.4960937 C44.0859375,53.5648437 44.103125,53.625 44.1289063,53.69375 C44.1460938,53.7453125 44.171875,53.8054687 44.1890625,53.8570312 L44.2664063,54.0632812 C44.2835938,54.1148437 44.309375,54.175 44.3265625,54.2265625 C44.3523438,54.2953125 44.3867188,54.3726562 44.4125,54.4414062 C44.4296875,54.4929687 44.4554688,54.5445312 44.4726563,54.5960937 C44.5070313,54.6820312 44.55,54.7765625 44.584375,54.8625 C44.9128194,55.0582545 45.1402343,55.4614023 45.2823594,55.7714935 C45.3167344,55.8402435 45.3511094,55.9175872 45.3854844,55.9863372 C45.4112656,56.0464935 45.4456406,56.1066497 45.4714219,56.1582122 L45.5745469,56.3644622 C45.6089219,56.4246185 45.6347031,56.4847747 45.6690781,56.544931 C45.7034531,56.613681 45.7378281,56.6738372 45.7722031,56.7425872 C45.8065781,56.8027435 45.8409531,56.8628997 45.8667344,56.923056 C45.9011094,56.991806 45.9440781,57.060556 45.9784531,57.1207122 L46.0815781,57.301181 C46.1245469,57.369931 46.1589219,57.438681 46.2018906,57.507431 L46.3050156,57.6878997 C46.3479844,57.7652435 46.3909531,57.8425872 46.4425156,57.919931 C46.4768906,57.9714935 46.5026719,58.023056 46.5370469,58.0832122 C46.6143906,58.2121185 46.6917344,58.332431 46.7690781,58.4613372 C46.8034531,58.5128997 46.8378281,58.5644622 46.8636094,58.6160247 C46.9151719,58.6933685 46.9667344,58.779306 47.0182969,58.8566497 C47.0526719,58.916806 47.0956406,58.9683685 47.1300156,59.0285247 C47.1815781,59.1058685 47.2245469,59.1746185 47.2761094,59.2519622 C47.3190781,59.3121185 47.3534531,59.3722747 47.3964219,59.432431 C47.4479844,59.5097747 47.4995469,59.5785247 47.5511094,59.6558685 C47.5682969,59.6816497 47.5854844,59.707431 47.6112656,59.741806 C47.8175156,61.2371185 47.9206406,62.8097747 47.9206406,64.416806 C47.9292344,68.026181 47.3964219,71.4464935 46.4339219,74.041806 L46.0195313,73.7515625 Z M67.2546875,67.340625 C67.0140625,67.4523437 65.828125,67.5984375 63.4390625,66.4984375 C60.9210938,65.346875 58.128125,63.3015625 55.5757812,60.7492187 C54.2867188,59.4601562 53.1265625,58.1109375 52.1296875,56.7359375 C52.0609375,56.6414062 51.9921875,56.5382812 51.9234375,56.44375 L51.871875,56.3664062 C51.8203125,56.2976563 51.7773438,56.2289062 51.7257812,56.1601562 C51.7085937,56.1257813 51.6828125,56.1 51.665625,56.065625 C51.6226562,55.996875 51.5710937,55.928125 51.528125,55.8679688 C51.5109375,55.8421875 51.49375,55.8164062 51.4765625,55.7820313 C51.425,55.6960938 51.3648437,55.61875 51.3132812,55.5328125 C51.3046875,55.5242188 51.3046875,55.515625 51.2960937,55.5070313 C51.2359375,55.4125 51.1757812,55.3265625 51.1242187,55.2320313 C51.1070312,55.20625 51.0984375,55.1890625 51.08125,55.1632813 C51.0382812,55.0945313 50.9953125,55.0257813 50.9609375,54.965625 C50.94375,54.9398438 50.9265625,54.9054688 50.909375,54.8796875 C50.875,54.8195313 50.8320312,54.759375 50.7976562,54.6992188 C50.7804687,54.6734375 50.7632812,54.6476563 50.7460937,54.6132813 C50.703125,54.5445313 50.66875,54.4757813 50.6257812,54.4070313 L50.6,54.3554688 C50.5484375,54.2695313 50.5054687,54.1835938 50.4539062,54.0976563 L50.428125,54.0460938 C50.39375,53.9773438 50.359375,53.9171875 50.325,53.8484375 C50.3078125,53.8226563 50.2992187,53.796875 50.2820312,53.7710938 C50.2476562,53.7109375 50.221875,53.659375 50.1960937,53.5992188 C50.1789062,53.5734375 50.1703125,53.5476563 50.153125,53.521875 C50.11875,53.4617188 50.0929687,53.4015625 50.0585937,53.3414063 L50.0328125,53.2898438 C49.9898437,53.2125 49.9554687,53.1351563 49.9210937,53.0578125 C49.9210937,53.0492188 49.9125,53.040625 49.9125,53.0320313 C49.878125,52.9632813 49.8523437,52.8945313 49.8179687,52.8257813 C49.809375,52.8 49.8007812,52.7828125 49.7921875,52.7570313 C49.7664063,52.7054688 49.740625,52.6539063 49.7234375,52.59375 C49.7148438,52.5679688 49.70625,52.5507813 49.6976563,52.525 C49.671875,52.4734375 49.6546875,52.421875 49.6289063,52.3617188 C49.6203125,52.3445313 49.6117188,52.3273438 49.603125,52.3015625 C49.5429688,52.1554688 49.4914063,52.0179688 49.4398438,51.8890625 C49.43125,51.871875 49.4226563,51.8546875 49.4226563,51.8289063 C49.4054688,51.7773438 49.3882813,51.734375 49.3710938,51.6828125 C49.3625,51.665625 49.3539063,51.6398438 49.3453125,51.6226563 C49.328125,51.5796875 49.3109375,51.528125 49.3023438,51.4851563 C49.29375,51.4679688 49.29375,51.4507813 49.2851563,51.425 C49.2679688,51.3734375 49.2507813,51.3132813 49.2335938,51.2617188 C49.2335938,51.253125 49.225,51.2445313 49.225,51.2445313 L49.1734375,51.0640625 C49.1648438,51.046875 49.1648438,51.0296875 49.15625,51.0125 C49.1476562,50.9695313 49.1304688,50.9265625 49.121875,50.8921875 C49.1132812,50.875 49.1132812,50.8492188 49.1046875,50.8320313 C49.0960937,50.7976563 49.0875,50.7546875 49.0789063,50.7203125 C49.0703125,50.703125 49.0703125,50.6773438 49.0617187,50.6601563 C49.053125,50.6171875 49.0445312,50.5828125 49.0359375,50.5398438 C49.0359375,50.5226563 49.0273438,50.5140625 49.0273438,50.496875 C49.01875,50.4453125 49.0101562,50.4023438 49.0015625,50.3507813 L49.15625,50.221875 L49.1734375,50.2046875 L49.4054688,49.9984375 C49.4226563,49.98125 49.4484375,49.9640625 49.465625,49.946875 C49.5429688,49.878125 49.6117188,49.809375 49.6804688,49.7320312 L49.70625,49.70625 C49.775,49.6375 49.8351563,49.56875 49.8953125,49.5 C49.9125,49.4828125 49.9296875,49.4570313 49.946875,49.4398438 C50.015625,49.3625 50.0757813,49.29375 50.1445313,49.2164062 C50.1617188,49.1992187 50.1703125,49.1820313 50.1875,49.1648437 C50.221875,49.1304687 50.2476563,49.0875 50.2820313,49.053125 C50.3078125,49.0617188 50.3335938,49.0617188 50.3679688,49.0703125 C50.4023438,49.0789063 50.4367188,49.0789063 50.4625,49.0875 L50.565625,49.1132813 C50.5914063,49.121875 50.6171875,49.121875 50.634375,49.1304688 C50.66875,49.1390625 50.6945313,49.1476563 50.7289063,49.15625 C50.7546875,49.1648438 50.7804688,49.1648438 50.80625,49.1734375 L50.909375,49.1992188 C50.9351563,49.2078125 50.9523438,49.2078125 50.978125,49.2164063 C51.0210938,49.225 51.0726563,49.2421875 51.115625,49.259375 C51.1328125,49.259375 51.1414063,49.2679688 51.1585938,49.2679688 L51.3390625,49.3195313 C51.35625,49.328125 51.3734375,49.328125 51.3992188,49.3367188 C51.4421875,49.3539063 51.49375,49.3625 51.5367188,49.3796875 C51.5625,49.3882813 51.5796875,49.396875 51.6054688,49.4054688 C51.6484375,49.4226563 51.7,49.4398438 51.7429688,49.4570313 C51.7601563,49.465625 51.7859375,49.4742188 51.803125,49.4828125 C51.8632813,49.5085938 51.9234375,49.5257813 51.9835938,49.5515625 C51.9921875,49.5515625 52.0007813,49.5601563 52.0007813,49.5601563 C52.0695313,49.5859375 52.146875,49.6117188 52.215625,49.6460938 C52.2242188,49.6546875 52.2414063,49.6546875 52.25,49.6632813 L52.4304688,49.740625 C52.4476563,49.7492188 52.4734375,49.7578125 52.490625,49.7664063 C52.5507813,49.7921875 52.6023438,49.8179688 52.6625,49.84375 C52.6796875,49.8523438 52.696875,49.8609375 52.7226563,49.8695313 C52.7914063,49.9039062 52.8601563,49.9296875 52.9289063,49.9640625 C52.9375,49.9640625 52.9460938,49.9726563 52.9460938,49.9726563 C53.0234375,50.0070313 53.109375,50.05 53.1867188,50.0929688 C53.1953125,50.0929688 53.2039063,50.1015625 53.2039063,50.1015625 C53.2726563,50.1359375 53.35,50.1703125 53.41875,50.2132813 C53.4359375,50.221875 53.4617188,50.2304688 53.4789063,50.2390625 C53.5390625,50.2734375 53.6078125,50.3078125 53.6679688,50.3335937 C53.6851563,50.3421875 53.7109375,50.359375 53.728125,50.3679687 C53.796875,50.4023437 53.865625,50.4453125 53.9429688,50.4796875 C53.9601563,50.4882812 53.96875,50.496875 53.9859375,50.5054687 C54.071875,50.5570312 54.1578125,50.6 54.2523438,50.6515625 C54.2609375,50.6515625 54.2609375,50.6601562 54.2695313,50.6601562 C54.346875,50.703125 54.4328125,50.7546875 54.5101563,50.7976562 C54.5359375,50.8148438 54.5617188,50.8234375 54.5789063,50.840625 C54.6476563,50.875 54.7078125,50.9179687 54.7765625,50.9523437 C54.8023438,50.9695312 54.828125,50.9867187 54.8625,51.0039062 C54.93125,51.046875 55,51.0898437 55.06875,51.1242187 C55.0945313,51.1414062 55.1117188,51.15 55.1375,51.1671875 C55.2320313,51.2273437 55.3179688,51.2789062 55.4125,51.3390625 C55.4210938,51.3476562 55.4296875,51.3476562 55.4382813,51.35625 C55.5242188,51.4078125 55.6101563,51.4679687 55.6875,51.5195312 C55.7132813,51.5367187 55.7476563,51.5625 55.7734375,51.5796875 C55.8421875,51.6226562 55.9023438,51.665625 55.9710938,51.7085937 C56.0054688,51.734375 56.0398438,51.7515625 56.0742188,51.7773437 C56.1429688,51.8203125 56.203125,51.871875 56.271875,51.9148437 C56.30625,51.9320313 56.3320313,51.9578125 56.3664063,51.975 C56.4609375,52.04375 56.5554688,52.1039063 56.65,52.1726562 L56.6585938,52.18125 C58.0421875,53.1867187 59.4,54.346875 60.6976563,55.6445312 C63.25,58.196875 65.2953125,60.9898437 66.446875,63.5078125 C67.5039063,65.9226562 67.3664063,67.1 67.2546875,67.340625 L67.2546875,67.340625 Z M73.6140625,46.0882812 C71.01875,47.0507812 67.5984375,47.5835937 63.9890625,47.5835937 C62.390625,47.5835937 60.8265625,47.4804687 59.3398438,47.2742187 L59.2625,47.2226562 C59.1765625,47.1625 59.0992188,47.1109375 59.0132813,47.0507812 C58.9617188,47.0164062 58.9101563,46.9820312 58.8671875,46.9476562 C58.78125,46.8875 58.6867188,46.8273437 58.6007813,46.7671875 C58.5578125,46.7414062 58.5148438,46.715625 58.471875,46.68125 C58.3601563,46.6039062 58.2398438,46.5351562 58.128125,46.4578125 C58.1109375,46.4492187 58.09375,46.440625 58.0765625,46.4234375 C57.9390625,46.3375 57.8101563,46.2515625 57.6726563,46.1742187 C57.6640625,46.165625 57.646875,46.1570312 57.6382813,46.1484375 C57.5179688,46.0796875 57.3976563,46.0109375 57.2859375,45.9421875 C57.2515625,45.925 57.2171875,45.9078125 57.1914062,45.8820312 C57.096875,45.821875 56.99375,45.7703125 56.8992188,45.7101562 C56.8648438,45.684375 56.821875,45.6671875 56.7875,45.65 C56.6929688,45.5984375 56.5984375,45.546875 56.5125,45.4953125 C56.4695313,45.478125 56.4351563,45.4523437 56.3921875,45.4351562 C56.2976563,45.3835937 56.203125,45.3320312 56.1085938,45.2890625 L56.0054688,45.2375 C55.9023438,45.1859375 55.8078125,45.134375 55.7046875,45.0914062 C55.6789063,45.0742187 55.653125,45.065625 55.61875,45.0484375 C55.4984375,44.9882812 55.378125,44.928125 55.2578125,44.8765625 C55.2492187,44.8765625 55.2492187,44.8679687 55.240625,44.8679687 C54.9742187,44.7476562 54.7164062,44.6359375 54.4585937,44.5242187 C54.45,44.5242187 54.4414062,44.515625 54.4242188,44.515625 C54.3125,44.4726562 54.1921875,44.4210937 54.0804688,44.378125 C54.0546875,44.3695312 54.0289062,44.3609375 54.0117188,44.3523437 C53.9085938,44.309375 53.8140625,44.275 53.7109375,44.240625 C53.6851563,44.2320312 53.659375,44.2234375 53.625,44.2148437 C53.5304687,44.1804687 53.4273438,44.1460937 53.3328125,44.1117187 L53.2554688,44.0859375 C53.1523438,44.0515625 53.0578125,44.0171875 52.9546875,43.9914062 C52.9375,43.9828125 52.9289063,43.9828125 52.9117188,43.9742187 C52.9289063,43.965625 52.9546875,43.9570312 52.9804688,43.9570312 C53.0492188,43.93125 53.1265625,43.9140625 53.1953125,43.8882812 C53.2382812,43.8710937 53.28125,43.8625 53.3328125,43.8453125 C53.41875,43.8195312 53.4960938,43.7851562 53.5820312,43.759375 C53.6164062,43.7507812 53.6507813,43.7335937 53.6851563,43.725 C53.8054688,43.6820312 53.9171875,43.6390625 54.0375,43.5960937 C54.071875,43.5789062 54.10625,43.5703125 54.140625,43.553125 L54.3984375,43.45 C54.45,43.4328125 54.4929688,43.4070312 54.5445313,43.3898437 C54.621875,43.3554687 54.690625,43.3296875 54.7679688,43.2953125 C54.8195313,43.2695312 54.8710938,43.2523437 54.9226563,43.2265625 C54.9914063,43.1921875 55.06875,43.1578125 55.1375,43.1320312 C55.1890625,43.10625 55.240625,43.0804687 55.2921875,43.0632812 C55.3695313,43.0289062 55.446875,42.9945312 55.5242188,42.9515625 C55.5757813,42.9257812 55.61875,42.9085937 55.6703125,42.8828125 C55.7648438,42.83125 55.8679688,42.7882812 55.9625,42.7367187 C55.996875,42.7195312 56.0226563,42.7023437 56.0570313,42.6851562 C56.1773438,42.625 56.2890625,42.5648437 56.409375,42.5046875 C56.4609375,42.4789062 56.5039063,42.453125 56.5554688,42.4273437 L56.7875,42.2984375 C56.8390625,42.2640625 56.8992188,42.2382812 56.9507813,42.2039062 C57.0195313,42.1609375 57.096875,42.1179687 57.165625,42.075 C57.2171875,42.040625 57.2773438,42.00625 57.3375,41.9804687 C57.4148438,41.9375 57.4835938,41.8945312 57.5609375,41.8515625 C57.6125,41.8171875 57.6726563,41.7828125 57.7242188,41.7570312 C57.8015625,41.7054687 57.8875,41.6625 57.9648438,41.6109375 C58.0164063,41.5851562 58.059375,41.5507812 58.1109375,41.525 C58.2398438,41.4476562 58.3601563,41.3703125 58.4890625,41.284375 C58.5234375,41.2585937 58.5664063,41.2328125 58.6007813,41.2070312 C58.6953125,41.146875 58.78125,41.0867187 58.8757813,41.0265625 L59.0304688,40.9234375 C59.1078125,40.871875 59.1851563,40.8203125 59.2710938,40.7601562 C59.296875,40.7429687 59.3140625,40.7257812 59.3398438,40.7171875 C60.8351563,40.5109375 62.4078125,40.4078125 64.0148438,40.4078125 C67.6242188,40.4078125 71.0445313,40.940625 73.6398438,41.903125 C76.0976563,42.8226562 76.8367188,43.759375 76.93125,44.0085937 C76.8109375,44.2320312 76.071875,45.16875 73.6140625,46.0882812 L73.6140625,46.0882812 Z"></path>
        </g>
    </g>
</svg>